<svg id="5f015f37-d4f6-4eeb-b2be-40ca834f89ce" data-name="Camada 1" xmlns="http://www.w3.org/2000/svg" viewBox="0 0 508.81 555"><defs><style>.\31 45f2241-546a-4070-a6a2-6fabce54faec{fill:#990c6e;}.\38 ff99291-2582-44a0-b82a-901911b82d5e{opacity:0.2;}.dea53419-8c4f-47b7-a73f-c9a7194883b9{fill:#fff;}.\36 8a30a89-0d3d-49fd-b681-09b8d78cd11f{fill:#f7425a;}</style></defs><title>brand</title><circle class="145f2241-546a-4070-a6a2-6fabce54faec" cx="251.34" cy="151" r="151"/><path class="8ff99291-2582-44a0-b82a-901911b82d5e" d="M320.34,285.3l-1-.68v-.08l-2-.68v-.08l1-.68V283l-1-.69v-.07l-1-.69v-.07l1-.69v-.07l-2-.69V280l-1-.69v-.07l1-.69v-.08l-2-.68v-.08l-1-.68v-.08l1-.68v-.08l-3-.68v-.08l1-.68v-.08l-1-.68v-.08l-2-.69v-.07l1-.69v-.07l-1-.69v-.07l-2-.69v-.07l1-.69v-.07l-1-.69v-.08l-1-.68v-.08l1-.68v-.08l-2-.68V267l-1-.68v-.08l1-.68v-.08l-2-.68v-.08l-1-.68V264l1-.69v-.07l-2-.69v-.07l-1-.69v-.07l1-.69V261l-3-.69v-.07l1-.69v-.08l-1-.68v-.08l-2-.68v-.08l1-.68v-.08l-1-.68v-.08l-2-.68v-.08l1-.68v-.08l-1-.69v-.07l-1-.69v-.07l1-.69v-.07l-2-.69v-.07l-1-.69v-.07l1-.69v-.08l-2-.68v-.08l-1-.68v-.08l1-.68V248l-3-.68v-.08l1-.68v-.08l-1-.68v-.08l-2-.68V245l1-.69v-.07l-1-.69v-.07l-2-.69v-.07l1-.69v-.07l-1-.69v-.07l-1-.69v-.08l1-.68v-.08l-2-.68v-.08l-1-.68v-.08l1-.68v-.08l-2-.68v-.08l-1-.68v-.08l1-.69v-.07l-3-.69v-.07l1-.69v-.07l-1-.69v-.07l-2-.69v-.07l1-.69v-.08l-1-.68v-.08l-2-.68v-.08l1-.68V229l-1-.68v-.08l-1-.68v-.08l1-.68v-.08l-2-.68V226l-1-.69v-.07l1-.69v-.07l-2-.69v-.07l-1-.69v-.07l1-.69v-.07l-3-.69v-.08l1-.68v-.08l-1-.68v-.08l-2-.68v-.08l1-.68v-.08l-1-.68v-.08l-2-.68v-.08l1-.68v-.08l-1-.69v-.07l-1-.69v-.07l1-.69v-.07l-2-.69V213l-1-.69v-.08l1-.68v-.08l-2-.68v-.08l-1-.68V210l1-.68v-.08l-3-.68v-.08l1-.68v-.08l-1-.68v-.08l-2-.69v-.07l1-.69v-.07l-1-.69v-.07l-2-.69v-.07l1-.69v-.07l-1-.69v-.08l-2-.68v-.08l1-.68v-.08l-1-.68v-.08l-1-.68v-.08l1-.68v-.08l-2-.68v-.08l-1-.68v-.08l1-.69v-.07l-2-.69v-.07l-1-.69v-.07l1-.69V194l-3-.69v-.07l1-.69v-.08l-1-.68v-.08l-2-.68V191l1-.68v-.08l-1-.68v-.08l-2-.68v-.08l1-.68v-.08l-1-.69v-.07l-1-.69v-.07l1-.69v-.07l-2-.69v-.07l-1-.69v-.07l1-.69v-.08l-2-.68v-.08l-1-.68v-.08l1-.68v-.08l-3-.68v-.08l1-.68v-.08l-1-.68v-.08l-2-.68V178l1-.69v-.07l-1-.69v-.07l-2-.69v-.07l1-.69V175l-1-.69v-.07l-1-.69v-.08l1-.68v-.08l-2-.68v-.08l-1-.68v-.08l1-.68v-.08l-2-.68v-.08l-1-.68v-.08l1-.69v-.07l-3-.69v-.07l1-.69v-.07l-1-.69v-.07l-2-.69v-.07l1-.69v-.08l-1-.68v-.08l-2-.68v-.08l1-.68v-.08l-1-.68v-.08l-1-.68v-.08l1-.68v-.08l-2-.68V159l-1-.69v-.07l1-.69v-.07l-2-.69v-.07l-1-.69V156l1-.69v-.07l-3-.69v-.08l1-.68v-.08l-1-.68v-.08l-2-.68v-.08l1-.68v-.08l-1-.68v-.08l-2-.68v-.08l1-.69v-.07l-1-.69v-.07l-2-.69v-.07l1-.69v-.07l-1-.69v-.07l-1-.69v-.08l1-.68v-.08l-2-.68v-.63l-39-41.22V230.23a5.92,5.92,0,0,0,1.77,4.21,6.69,6.69,0,0,0,.65.76,5.22,5.22,0,0,0,.65.76,5.22,5.22,0,0,0,.65.76,5.22,5.22,0,0,0,.65.76,213,213,0,0,0,1.94,2.29,5.92,5.92,0,0,0,.65.76,155.63,155.63,0,0,1,1.3,1.53,5.81,5.81,0,0,0,.65.76,130.32,130.32,0,0,1,1.29,1.52,155.63,155.63,0,0,1,1.3,1.53,6.69,6.69,0,0,0,.65.76,6.69,6.69,0,0,0,.65.76,5.92,5.92,0,0,0,.65.76,5.22,5.22,0,0,0,.65.76,5.22,5.22,0,0,0,.65.76,5.3,5.3,0,0,0,.65.77,6.6,6.6,0,0,0,.64.76,5.92,5.92,0,0,0,.65.76,5.92,5.92,0,0,0,.65.76,5.92,5.92,0,0,0,.65.76,6,6,0,0,0,.65.77,5.81,5.81,0,0,0,.65.76,30461954533085.7,30461954533085.7,0,0,0,1.3,1.52,5.85,5.85,0,0,0,.64.76,7,7,0,0,0,.65.77,6.69,6.69,0,0,0,.65.76,5.92,5.92,0,0,0,.65.76,30461954533182.5,30461954533182.5,0,0,1,1.3,1.52,5.3,5.3,0,0,0,.65.77,5.81,5.81,0,0,0,.65.76,5.22,5.22,0,0,0,.65.76,5.85,5.85,0,0,0,.64.76,5.92,5.92,0,0,0,.65.76,6,6,0,0,0,.65.77,6.69,6.69,0,0,0,.65.76,5.92,5.92,0,0,0,.65.76,5.92,5.92,0,0,0,.65.76,5.22,5.22,0,0,0,.65.76,5.3,5.3,0,0,0,.65.77,6.6,6.6,0,0,0,.64.76,6.84,6.84,0,0,0,.65.76,5.92,5.92,0,0,0,.65.76,5.92,5.92,0,0,0,.65.76,6.79,6.79,0,0,0,.65.77,6.69,6.69,0,0,0,.65.76,5.22,5.22,0,0,0,.65.76,5.22,5.22,0,0,0,.65.76,5.22,5.22,0,0,0,.65.76,71.06,71.06,0,0,0,1.29,1.53,5.92,5.92,0,0,0,.65.76,5.92,5.92,0,0,0,.65.76,5.92,5.92,0,0,0,.65.76,6.79,6.79,0,0,0,.65.77,5.81,5.81,0,0,0,.65.76,130.32,130.32,0,0,1,1.29,1.52,6.84,6.84,0,0,0,.65.76,5.92,5.92,0,0,0,.65.76,6,6,0,0,0,.65.77,6.69,6.69,0,0,0,.65.76,5.92,5.92,0,0,0,.65.76,5.22,5.22,0,0,0,.65.76,5.22,5.22,0,0,0,.65.76,5.3,5.3,0,0,0,.65.77,6.6,6.6,0,0,0,.64.76,5.92,5.92,0,0,0,.65.76,5.92,5.92,0,0,0,.65.76,5.92,5.92,0,0,0,.65.76,6,6,0,0,0,.65.77,6.69,6.69,0,0,0,.65.76,5.22,5.22,0,0,0,.65.76,5.22,5.22,0,0,0,.65.76,5.85,5.85,0,0,0,.64.76,7,7,0,0,0,.65.77,6.69,6.69,0,0,0,.65.76c.06.07.13.14.18.21a151.81,151.81,0,0,0,104.35-12.33l-.15-.15Z"/><path class="8ff99291-2582-44a0-b82a-901911b82d5e" d="M402.25,156.13a3.74,3.74,0,0,1-1-1.09,1.61,1.61,0,0,0-.65-.76,1.51,1.51,0,0,0-.65-.76,1.47,1.47,0,0,0-.65-.76,1.49,1.49,0,0,0-.64-.76,1.56,1.56,0,0,0-.65-.76,1.51,1.51,0,0,0-.65-.76A30461954532891.73,30461954532891.73,0,0,0,396,149a1.49,1.49,0,0,0-.64-.76,1.56,1.56,0,0,0-.65-.76,15230977266495.25,15230977266495.25,0,0,1-1.3-1.52,1.52,1.52,0,0,0-.64-.77,1.61,1.61,0,0,0-.65-.76,1.56,1.56,0,0,0-.65-.76,30461954533216.58,30461954533216.58,0,0,1-1.3-1.52,1.49,1.49,0,0,0-.64-.76,1.56,1.56,0,0,0-.65-.76,30461954532829.78,30461954532829.78,0,0,1-1.3-1.52,130.32,130.32,0,0,1-1.29-1.52,1.52,1.52,0,0,0-.65-.76A1.49,1.49,0,0,0,385,136a1.51,1.51,0,0,0-.65-.76,1.54,1.54,0,0,0-.64-.76,15230977266496,15230977266496,0,0,1-1.3-1.52,30461954533212.63,30461954533212.63,0,0,1-1.3-1.52,1.49,1.49,0,0,0-.64-.76,1.56,1.56,0,0,0-.65-.76,1.47,1.47,0,0,0-.65-.76,1.43,1.43,0,0,0-.65-.76,1.43,1.43,0,0,0-.65-.76,1.46,1.46,0,0,0-.64-.76,1.59,1.59,0,0,0-.65-.77,1.51,1.51,0,0,0-.65-.76,1.47,1.47,0,0,0-.65-.76,1.49,1.49,0,0,0-.64-.76,1.56,1.56,0,0,0-.65-.76,1.51,1.51,0,0,0-.65-.76,30461954533071,30461954533071,0,0,1-1.3-1.52,1.49,1.49,0,0,0-.64-.76,1.56,1.56,0,0,0-.65-.76,15230977266694.19,15230977266694.19,0,0,0-1.3-1.52,1.52,1.52,0,0,0-.64-.77,15230977266625.27,15230977266625.27,0,0,0-1.3-1.52,1.47,1.47,0,0,0-.65-.76,1.47,1.47,0,0,0-.65-.76,1.49,1.49,0,0,0-.64-.76,1.56,1.56,0,0,0-.65-.76,1.51,1.51,0,0,0-.65-.76,1.47,1.47,0,0,0-.65-.76,1.47,1.47,0,0,0-.65-.76,1.49,1.49,0,0,0-.64-.76,1.52,1.52,0,0,0-.65-.76,1.43,1.43,0,0,0-.65-.76,1.49,1.49,0,0,0-.65-.77,1.54,1.54,0,0,0-.64-.76,30461954533039.65,30461954533039.65,0,0,0-1.3-1.52,15230977266622,15230977266622,0,0,0-1.3-1.52,1.49,1.49,0,0,0-.64-.76,1.56,1.56,0,0,0-.65-.76,15230977266367.39,15230977266367.39,0,0,1-1.3-1.52,1.43,1.43,0,0,0-.65-.76,1.46,1.46,0,0,0-.64-.76,1.59,1.59,0,0,0-.65-.77,15230977266686.14,15230977266686.14,0,0,0-1.3-1.52,1.49,1.49,0,0,0-.64-.76,30461954533070.38,30461954533070.38,0,0,1-1.3-1.52,15230977266685.13,15230977266685.13,0,0,0-1.3-1.52,1.49,1.49,0,0,0-.64-.76,1.56,1.56,0,0,0-.65-.76,1.47,1.47,0,0,0-.65-.76,30461954533040.58,30461954533040.58,0,0,0-1.3-1.52,1.52,1.52,0,0,0-.64-.77,1.61,1.61,0,0,0-.65-.76,30461954533070.23,30461954533070.23,0,0,1-1.3-1.52,1.49,1.49,0,0,0-.64-.76,1.56,1.56,0,0,0-.65-.76,1.51,1.51,0,0,0-.65-.76A15230977266617.44,15230977266617.44,0,0,0,339,82a1.49,1.49,0,0,0-.64-.76,1.52,1.52,0,0,0-.65-.76,15230977266437.48,15230977266437.48,0,0,1-1.3-1.52,1.52,1.52,0,0,0-.64-.77,1.61,1.61,0,0,0-.65-.76,1.56,1.56,0,0,0-.65-.76,15230977266376.45,15230977266376.45,0,0,1-1.3-1.52,1.49,1.49,0,0,0-.64-.76,1.56,1.56,0,0,0-.65-.76,1.47,1.47,0,0,0-.65-.76c-.21-.57-1.4-.88-1.4-.88h-30.5c-.4,0-.65-.19-1,0v.28c-5,0-6,4.72-6,6.72V94.51l1,.57V93.66l-3,.7V92.89l1,.71V92.13l-1,.71V91.37l-2,.71V90.61l1,.7V89.85l-1,.7V89.09l-1,.7V88.33l1,.7V87.57l-2,.7V86.81l-1,.7V86.05l1,.7v-1.5l-2,.7V84.49l-37.91,41.23-.25-.27,0,0-.69-.73,0,0-.68-.73,0,0-.68-.73,0,0-.68-.73,0,0-.69-.72,0,0-.68-.72,0,0-.68-.72,0,0-.68-.72,0,0-43-45.59c-1.1-1.17-3.67-3.9-6.34-3.9h-.32c-3.5-.36-22.3,5.78-30.61,17.3a2.25,2.25,0,0,0-.35.69c-.38,1.45.48,3,2.27,5,.2.25.42.5.65.76s.42.5.65.77l.65.76c.2.24.41.5.65.76s.41.5.64.76l.65.76.65.76.65.76c.19.25.41.5.64.76s.42.5.65.76.42.5.65.76.42.5.65.76.42.5.65.76.41.5.64.76.42.5.65.76.42.51.65.77l.65.76c.2.24.41.5.64.76l.65.76.65.76.65.76c.2.25.42.5.65.76s.41.5.64.76.42.5.65.76.42.5.65.76.42.5.65.76.41.5.65.76.41.51.64.77l.65.76.65.76.65.76c.2.24.41.5.64.76l.65.76c.2.25.42.5.65.76s.42.5.65.76.42.5.65.76.41.5.64.76.42.5.65.76.42.5.65.76.42.5.65.76.41.51.65.77.41.5.64.76l.65.76.65.76.65.76c.2.25.41.5.64.76s.42.5.65.76.42.5.65.76.42.5.65.76.41.5.65.76.41.5.64.76.42.5.65.76.42.51.65.77l.65.76c.2.24.41.5.65.76s.41.5.64.76l.65.76.65.76c.2.25.42.5.65.76s.41.5.64.76.42.5.65.76.42.5.65.76.42.5.65.76.41.5.65.76.41.5.64.77l.65.76.65.76.65.76c.2.24.41.5.64.76l.65.76.65.76c.2.25.42.5.65.76s.42.5.65.76.41.5.64.76.42.5.65.76.42.5.65.76.42.5.65.76.41.5.65.77.41.5.64.76l.65.76.65.76.65.76c.2.24.41.5.64.76s.42.5.65.76.42.5.65.76.42.5.65.76.42.5.65.76.41.5.64.76.42.5.65.76.42.5.65.76.42.51.65.77.41.5.64.76l.65.76.65.76.65.76c.2.25.42.5.65.76s.41.5.64.76.42.5.65.76.42.5.65.76.42.5.65.76.41.5.65.76.41.5.64.76.42.5.65.77l.65.76.65.76c.2.24.41.5.64.76l.65.76.65.76c.2.25.42.5.65.76s.42.5.65.76.41.5.64.76.42.5.65.76.42.5.65.76.42.5.65.76.41.5.64.76.42.51.65.77l.65.76.65.76.65.76c.2.24.41.5.64.76l.65.76c.2.25.42.5.65.76s.42.5.65.76.42.5.65.76.41.5.64.76.42.5.65.76.42.5.65.76.42.51.65.77.41.5.64.76l.65.76.65.76.65.76.65.76c.2.25.41.5.64.76s.42.5.65.76.42.5.65.76.42.5.65.76.42.5.65.76.41.5.64.76.42.5.65.76.42.51.65.77l.65.76c.2.24.41.5.64.76l.65.76.65.76.65.76c.2.25.42.5.65.76s.41.5.64.76.42.5.65.76.42.5.65.76.42.5.65.76.41.5.65.76.41.5.64.77l.65.76.65.76.65.76c.2.24.41.5.64.76l.65.76c.2.25.42.5.65.76s.42.5.65.76.42.5.65.76.41.5.64.76.42.5.65.76.42.5.65.76.42.5.65.76.41.51.65.77.41.5.64.76l.65.76.65.76.65.76c.2.24.41.5.64.76s.42.5.65.76.42.5.65.76.42.5.65.76.42.5.65.76.41.5.64.76.42.5.65.76.42.51.65.77l.65.76c.2.24.41.5.64.76l.65.76.65.76.65.76.65.76c.19.25.41.5.64.76s.42.5.65.76.42.5.65.76.42.5.65.76.41.5.65.76.41.5.64.76.42.51.65.77l.65.76.65.76c.2.24.41.5.64.76l.65.76.65.76c.2.25.42.5.65.76s.42.5.65.76.41.5.64.76.42.5.65.76.42.5.65.76.42.5.65.76.41.5.65.76.41.51.64.77l.65.76.65.76.65.76c.2.24.41.5.64.76l.65.76c.2.25.42.5.65.76s.42.5.65.76.42.5.65.76.41.5.64.76.42.5.65.76.42.5.65.76.42.51.65.77.41.5.64.76l.65.76.65.76.65.76.65.76c.2.25.41.5.64.76s.42.5.65.76.42.5.65.76.42.5.65.76.41.5.65.76.41.5.64.76.42.5.65.77l.65.76.65.76c.2.24.41.5.64.76l.65.76.65.76.65.76c.2.25.42.5.65.76s.41.5.64.76.42.5.65.76.42.5.65.76.42.5.65.76.41.5.65.76.41.51.64.77l.65.76.65.76.65.76c.2.24.41.5.64.76l.65.76c.2.25.42.5.65.76s.42.5.65.76.42.5.65.76.4.48.62.73A151,151,0,0,0,402.25,156.13Z"/><path class="dea53419-8c4f-47b7-a73f-c9a7194883b9" d="M166.24,236h27.2a5.9,5.9,0,0,0,5.9-5.9V142.85l-39-40.81V230.1A5.9,5.9,0,0,0,166.24,236Z"/><path class="dea53419-8c4f-47b7-a73f-c9a7194883b9" d="M240.62,119.37l-43-45.59c-1.1-1.17-3.67-3.9-6.33-3.9H191c-3.53-.36-22.65,5.9-30.83,17.62-.83,2,.82,4.2,4.12,7.48.5.5.84.85,1.14,1.17L215.46,149a17,17,0,0,1,3.7-6.38Z"/><path class="dea53419-8c4f-47b7-a73f-c9a7194883b9" d="M225.59,148.28a9,9,0,0,0,.52,12.75L241.22,175a9.06,9.06,0,0,0,12.76-.52l30.36-32.94v-57Z"/><rect class="dea53419-8c4f-47b7-a73f-c9a7194883b9" x="292.34" y="72" width="39" height="166" rx="7" ry="7"/><path class="68a30a89-0d3d-49fd-b681-09b8d78cd11f" d="M93.86,376.78q5.48,4.59,5.48,15.46v42.67q0,3.09-5.67,3.09H92q-5.66,0-5.66-3.09V393.73q0-5.07-2.64-7.86c-1.77-1.85-4.37-2.78-7.82-2.78a12.74,12.74,0,0,0-8,2.66,26.46,26.46,0,0,0-5.54,5.63v43.53q0,3.09-5.66,3.09H55q-5.66,0-5.66-3.09V393.73q0-5.07-2.64-7.86t-7.94-2.78a12.82,12.82,0,0,0-6.4,1.67,20.7,20.7,0,0,0-4.8,3.59,12.13,12.13,0,0,0-2.22,2.78v43.78q0,3.09-5.66,3.09H19q-5.67,0-5.67-3.09V392.74a67.92,67.92,0,0,0-.74-11.88c-.49-2.47-.74-3.87-.74-4.2,0-1.15,1-2,3.08-2.47a24.08,24.08,0,0,1,5.67-.74,2.83,2.83,0,0,1,2.71,1.85,18.51,18.51,0,0,1,1.3,3.77c.28,1.28.47,2.13.55,2.54a27.27,27.27,0,0,1,8.07-6.68,21,21,0,0,1,10.41-2.72,23.46,23.46,0,0,1,10.47,2.29,13.62,13.62,0,0,1,6.78,7.73,29.84,29.84,0,0,1,8.75-7.18,22,22,0,0,1,10.72-2.84A20.35,20.35,0,0,1,93.86,376.78Z"/><path class="68a30a89-0d3d-49fd-b681-09b8d78cd11f" d="M122.43,433.54q-5.09-5.27-5.09-14.78V376.09q0-3.09,5.64-3.09h.67q5.68,0,5.69,3.09v41.18c0,3.39.95,6,2.85,7.86s4.66,2.78,8.29,2.78a14.38,14.38,0,0,0,7.67-2.29,20.4,20.4,0,0,0,6.19-5.87V376.09q0-3.09,5.69-3.09h1.67q5.64,0,5.64,3.09v42.54a68.73,68.73,0,0,0,.74,12c.49,2.47.73,3.88.73,4.2,0,1.16-1,2-3.06,2.48a24.3,24.3,0,0,1-5.64.74,2.71,2.71,0,0,1-2.63-1.86,19.77,19.77,0,0,1-1.23-3.95c-.29-1.4-.47-2.35-.55-2.85a26.28,26.28,0,0,1-8.58,6.87,22.6,22.6,0,0,1-10.29,2.53Q127.52,438.79,122.43,433.54Z"/><path class="68a30a89-0d3d-49fd-b681-09b8d78cd11f" d="M191.31,434.85q-5-4.16-5-13.79v-73q0-3.09,5.74-3.09h1.4q5.86,0,5.86,3.09v72.35q0,4.46,1.66,6.24a5.91,5.91,0,0,0,4.59,1.8,12.59,12.59,0,0,0,3-.31,7.94,7.94,0,0,1,1.85-.31c.85,0,1.57.88,2.17,2.66a14.11,14.11,0,0,1,.89,4q0,4.44-10.2,4.45A18.12,18.12,0,0,1,191.31,434.85Z"/><path class="68a30a89-0d3d-49fd-b681-09b8d78cd11f" d="M224.34,434.92V348.08q0-3.07,5.74-3.08h.55q5.72,0,5.71,3.08V381a31,31,0,0,1,8.38-6.1,22.56,22.56,0,0,1,10.25-2.4A21.08,21.08,0,0,1,268.75,377q5.6,4.56,5.59,15.39v42.5q0,3.07-5.71,3.08H268q-5.64,0-5.64-3.09V393.73q0-5.07-2.82-7.86c-1.88-1.85-4.65-2.78-8.33-2.78a13.65,13.65,0,0,0-6.62,1.67,19.22,19.22,0,0,0-5,3.71,16.6,16.6,0,0,0-2.27,2.78v43.67q0,3.07-5.86,3.08h-1.4Q224.33,438,224.34,434.92Z"/><path class="68a30a89-0d3d-49fd-b681-09b8d78cd11f" d="M289.92,405.67q0-16.69,7.54-25.16T319.1,372q13,0,19.42,8.41T345,404.31c0,.83-.6,2-1.79,3.46S341,410,340.25,410h-37q.75,9.4,5.07,13.67T321,427.93a27.43,27.43,0,0,0,8.22-1.11,39.79,39.79,0,0,0,6.06-2.41,13.89,13.89,0,0,1,2.91-1.3c.91,0,2,.95,3.15,2.84s1.8,3.3,1.8,4.21c0,1.32-1.1,2.62-3.28,3.89a31.41,31.41,0,0,1-8.47,3.16,45.55,45.55,0,0,1-10.52,1.23Q289.92,438.44,289.92,405.67ZM332,400q0-8.53-3.28-13.05t-9.83-4.51q-14,0-15.59,17.56Z"/><path class="68a30a89-0d3d-49fd-b681-09b8d78cd11f" d="M360.34,434.91V392.74a65.53,65.53,0,0,0-.76-11.88c-.51-2.47-.77-3.87-.77-4.2,0-1.15,1.06-2,3.19-2.47a25.66,25.66,0,0,1,5.86-.74,2.81,2.81,0,0,1,2.74,1.73,17.65,17.65,0,0,1,1.28,3.71c.29,1.32.48,2.22.57,2.72q6.49-9.41,14.53-9.4a8.25,8.25,0,0,1,5.54,1.61,4.9,4.9,0,0,1,1.85,3.83,16.23,16.23,0,0,1-.89,5c-.6,1.81-1.27,2.72-2,2.72a9.86,9.86,0,0,1-2.61-.62,13,13,0,0,0-4.14-.62,10.42,10.42,0,0,0-6.95,2.54,23.73,23.73,0,0,0-4.4,4.63v43.66q0,3.09-5.73,3.09H366.2C362.3,438,360.34,437,360.34,434.91Z"/><path class="68a30a89-0d3d-49fd-b681-09b8d78cd11f" d="M401.84,405.67q0-16.69,7.54-25.16T431,372q13,0,19.42,8.41t6.43,23.87c0,.83-.6,2-1.79,3.46s-2.17,2.23-2.91,2.23h-37q.75,9.4,5.07,13.67t12.62,4.26a27.43,27.43,0,0,0,8.22-1.11,39.79,39.79,0,0,0,6.06-2.41,13.89,13.89,0,0,1,2.91-1.3c.9,0,2,.95,3.15,2.84s1.79,3.3,1.79,4.21q0,2-3.27,3.89a31.41,31.41,0,0,1-8.47,3.16,45.55,45.55,0,0,1-10.52,1.23Q401.84,438.44,401.84,405.67Zm42-5.67q0-8.53-3.27-13.05t-9.83-4.51q-14,0-15.59,17.56Z"/><path class="68a30a89-0d3d-49fd-b681-09b8d78cd11f" d="M476.53,437.65a25.56,25.56,0,0,1-7.36-3.09q-2.78-1.86-2.78-3.71a9.09,9.09,0,0,1,1.79-4.39c1.2-1.86,2.25-2.79,3.16-2.79a14.64,14.64,0,0,1,2.47,1.3,28.34,28.34,0,0,0,5.07,2.29,19.51,19.51,0,0,0,6.43,1q10.76,0,10.76-8.66a7.27,7.27,0,0,0-2.72-6c-1.81-1.44-4.87-2.86-9.15-4.26q-8.65-2.59-12.49-6.87t-3.84-11.68a17,17,0,0,1,5.82-13.42q5.81-5.13,15.21-5.13a38.93,38.93,0,0,1,11.75,1.67Q506,375.57,506,378a10.48,10.48,0,0,1-1.54,4.7c-1,1.9-2,2.84-2.91,2.84a29.49,29.49,0,0,1-3.34-1.54,17.26,17.26,0,0,0-7.66-1.43,12.54,12.54,0,0,0-7.05,1.8,5.65,5.65,0,0,0-2.72,5,7.68,7.68,0,0,0,2.65,6.12,26.41,26.41,0,0,0,8.23,4.26,48,48,0,0,1,10.2,4.58,14.44,14.44,0,0,1,5.32,5.81,20.28,20.28,0,0,1,1.67,8.78,18.72,18.72,0,0,1-2.91,10.27,19.58,19.58,0,0,1-8,7.11,25.73,25.73,0,0,1-11.56,2.53A37.52,37.52,0,0,1,476.53,437.65Z"/><path class="145f2241-546a-4070-a6a2-6fabce54faec" d="M9.87,531a22.74,22.74,0,0,1-7.28-10A39.53,39.53,0,0,1,0,506.15a38.8,38.8,0,0,1,2.75-15.32,22,22,0,0,1,7.71-9.8,20.15,20.15,0,0,1,11.65-3.39,21.87,21.87,0,0,1,7.71,1.27,26.54,26.54,0,0,1,6.52,3.6V456.65q0-2.65,4.85-2.65h1.19q5,0,5,2.65v60.63A57.58,57.58,0,0,0,48,527.56c.43,2.12.65,3.32.65,3.6,0,1-.9,1.7-2.7,2.12a22,22,0,0,1-5,.64,2.39,2.39,0,0,1-2.32-1.59A17.15,17.15,0,0,1,37.58,529c-.25-1.17-.41-2-.48-2.39q-7.12,7.95-16.39,7.95A17.44,17.44,0,0,1,9.87,531Zm20.32-7.89A23.51,23.51,0,0,0,36.34,518V490.41a18.3,18.3,0,0,0-11.44-3.92q-6.48,0-9.76,4.77t-3.28,13.89q0,9.54,3,14.68A9.6,9.6,0,0,0,23.62,525,13.23,13.23,0,0,0,30.19,523.11Z"/><path class="145f2241-546a-4070-a6a2-6fabce54faec" d="M60.55,506.29q0-14.31,6.47-21.57t18.54-7.26q11.13,0,16.64,7.21t5.52,20.45a5.62,5.62,0,0,1-1.54,3c-1,1.27-1.86,1.91-2.49,1.91H72q.63,8.06,4.34,11.71t10.81,3.66a23.29,23.29,0,0,0,7-1,33.32,33.32,0,0,0,5.2-2.06,12.14,12.14,0,0,1,2.49-1.12c.77,0,1.67.82,2.7,2.44a8.18,8.18,0,0,1,1.54,3.61q0,1.69-2.81,3.33a26.89,26.89,0,0,1-7.26,2.71,39.2,39.2,0,0,1-9,1.06Q60.54,534.38,60.55,506.29Zm36-5.29q0-7.32-2.81-11.18C91.9,487.24,89.1,486,85.35,486Q73.38,486,72,501Z"/><path class="145f2241-546a-4070-a6a2-6fabce54faec" d="M146.34,552.46v-58a56.91,56.91,0,0,0-.64-10.17c-.43-2.12-.64-3.32-.64-3.61,0-1,.89-1.69,2.67-2.12a21.53,21.53,0,0,1,4.91-.63,2.47,2.47,0,0,1,2.35,1.53,14.86,14.86,0,0,1,1.12,3.18c.25,1.1.41,1.82.48,2.18a23.66,23.66,0,0,1,8.8-6.52,19,19,0,0,1,6.9-1.43,17.63,17.63,0,0,1,11.38,3.55,22.09,22.09,0,0,1,7.1,10,41.91,41.91,0,0,1,2.46,14.95q0,13.35-5.93,20.88t-16,7.52a21,21,0,0,1-7.58-1.27,26.65,26.65,0,0,1-6.41-3.6v23.53q0,2.53-4.91,2.54h-1.18Q146.34,555,146.34,552.46Zm32.15-32.26q3.22-4.77,3.23-13.89,0-9.54-3-14.68a9.48,9.48,0,0,0-8.69-5.14,13.43,13.43,0,0,0-6.68,1.86,22,22,0,0,0-6,5.14v27.56A17.75,17.75,0,0,0,168.79,525Q175.26,525,178.49,520.2Z"/><path class="145f2241-546a-4070-a6a2-6fabce54faec" d="M207.34,531.35V495.21a55.8,55.8,0,0,0-.65-10.18c-.43-2.12-.64-3.32-.64-3.6,0-1,.9-1.7,2.69-2.12a22,22,0,0,1,5-.64,2.4,2.4,0,0,1,2.32,1.49,14.89,14.89,0,0,1,1.08,3.18c.25,1.13.41,1.91.49,2.33q5.49-8.06,12.29-8.06a6.9,6.9,0,0,1,4.69,1.38,4.27,4.27,0,0,1,1.57,3.29,14,14,0,0,1-.76,4.24c-.5,1.55-1.08,2.33-1.72,2.33a8.22,8.22,0,0,1-2.21-.53,11.05,11.05,0,0,0-3.51-.53,8.75,8.75,0,0,0-5.88,2.17,20.17,20.17,0,0,0-3.72,4v37.41q0,2.65-4.85,2.65H212.3Q207.34,534,207.34,531.35Z"/><path class="145f2241-546a-4070-a6a2-6fabce54faec" d="M249,526.93q-6.36-7.26-6.36-21t6.46-21.2q6.47-7.41,18.44-7.42t18.29,7.37q6.3,7.37,6.3,21.25t-6.25,21q-6.25,7.26-18.34,7.26T249,526.93Zm28.66-6.52q3.34-4.77,3.34-14.63t-3.34-14.68q-3.33-4.82-10.33-4.82t-10.17,4.82q-3.29,4.83-3.29,14.68t3.23,14.63q3.24,4.77,10.23,4.77T277.66,520.41Z"/><path class="145f2241-546a-4070-a6a2-6fabce54faec" d="M311.87,531a22.74,22.74,0,0,1-7.28-10A39.53,39.53,0,0,1,302,506.15a38.8,38.8,0,0,1,2.75-15.32,22,22,0,0,1,7.71-9.8,20.15,20.15,0,0,1,11.65-3.39,21.87,21.87,0,0,1,7.71,1.27,26.54,26.54,0,0,1,6.52,3.6V456.65q0-2.65,4.85-2.65h1.19q5,0,5,2.65v60.63a57.58,57.58,0,0,0,.65,10.28c.43,2.12.65,3.32.65,3.6,0,1-.9,1.7-2.7,2.12a22,22,0,0,1-5,.64,2.39,2.39,0,0,1-2.32-1.59,17.15,17.15,0,0,1-1.08-3.34c-.25-1.17-.41-2-.48-2.39q-7.12,7.95-16.39,7.95A17.44,17.44,0,0,1,311.87,531Zm20.32-7.89a23.51,23.51,0,0,0,6.15-5.14V490.41a18.3,18.3,0,0,0-11.44-3.92q-6.48,0-9.76,4.77t-3.28,13.89q0,9.54,3,14.68a9.6,9.6,0,0,0,8.74,5.14A13.23,13.23,0,0,0,332.19,523.11Z"/><path class="145f2241-546a-4070-a6a2-6fabce54faec" d="M369.72,529.88q-4.38-4.5-4.38-12.66V480.65q0-2.65,4.85-2.65h1.37q4.79,0,4.78,2.65v35.29a9.1,9.1,0,0,0,2.39,6.73q2.4,2.39,7,2.39a11.91,11.91,0,0,0,6.44-2,17.47,17.47,0,0,0,5.2-5V480.65c0-1.77,1.6-2.65,4.78-2.65h1.37q4.85,0,4.85,2.65v36.46a59,59,0,0,0,.63,10.28c.43,2.12.64,3.32.64,3.6,0,1-.88,1.7-2.64,2.12a20.49,20.49,0,0,1-4.85.64,2.33,2.33,0,0,1-2.26-1.59,17.4,17.4,0,0,1-1.06-3.39c-.24-1.2-.4-2-.47-2.44a22.58,22.58,0,0,1-7.38,5.88,19.48,19.48,0,0,1-8.85,2.18Q374.09,534.39,369.72,529.88Z"/><path class="145f2241-546a-4070-a6a2-6fabce54faec" d="M431.18,530.61q-3.84-3.54-3.84-11.81V487H422.9a2.19,2.19,0,0,1-1.95-.9,5.31,5.31,0,0,1-.61-2.92v-1.5a5.08,5.08,0,0,1,.6-2.81,2.13,2.13,0,0,1,1.9-.87h4.33l1.41-10.44q.33-2.56,4.12-2.56h1.74q3.9,0,3.9,2.56V478H446a2,2,0,0,1,1.8.9,5.64,5.64,0,0,1,.57,2.91v1.38a5.64,5.64,0,0,1-.57,2.91,2,2,0,0,1-1.8.9h-8.63v31.27c0,2.54.4,4.33,1.21,5.35a4.26,4.26,0,0,0,3.55,1.54,8.28,8.28,0,0,0,2.28-.27,5.76,5.76,0,0,1,1.41-.26c.64,0,1.19.76,1.65,2.27a13.46,13.46,0,0,1,.68,3.45q0,3.81-7.77,3.81A13,13,0,0,1,431.18,530.61Z"/><path class="145f2241-546a-4070-a6a2-6fabce54faec" d="M464.47,526.93q-6.36-7.26-6.36-21t6.46-21.2q6.46-7.41,18.44-7.42t18.29,7.37q6.3,7.37,6.3,21.25t-6.25,21q-6.25,7.26-18.34,7.26T464.47,526.93Zm28.67-6.52q3.33-4.77,3.34-14.63t-3.34-14.68q-3.34-4.82-10.34-4.82t-10.17,4.82q-3.28,4.83-3.29,14.68t3.23,14.63q3.24,4.77,10.23,4.77T493.14,520.41Z"/></svg>