<svg id="793235b9-7e39-40ef-aaff-d4e3893a530d" data-name="Camada 1" xmlns="http://www.w3.org/2000/svg" viewBox="0 0 865.47 302.09"><defs><style>.ebfa176f-21c0-476b-9901-c073ea5a70fd{fill:#f6f6fa;}</style></defs><title>brand-horizontal-light-all</title><path class="ebfa176f-21c0-476b-9901-c073ea5a70fd" d="M450.52,81.78Q456,86.37,456,97.24v42.67q0,3.09-5.67,3.09h-1.67q-5.66,0-5.66-3.09V98.73q0-5.07-2.65-7.86c-1.76-1.85-4.37-2.78-7.81-2.78a12.72,12.72,0,0,0-8,2.66A26.22,26.22,0,0,0,419,96.38v43.53q0,3.09-5.66,3.09h-1.68q-5.66,0-5.66-3.09V98.73q0-5.07-2.65-7.86c-1.76-1.85-4.41-2.78-7.93-2.78a12.79,12.79,0,0,0-6.4,1.67,20.7,20.7,0,0,0-4.8,3.59A11.84,11.84,0,0,0,382,96.13v43.78q0,3.09-5.66,3.09h-.67q-5.67,0-5.67-3.09V97.74a67.92,67.92,0,0,0-.74-11.88c-.49-2.47-.74-3.87-.74-4.2,0-1.15,1-2,3.08-2.47a24,24,0,0,1,5.67-.74A2.84,2.84,0,0,1,380,80.3a19.1,19.1,0,0,1,1.29,3.77c.29,1.28.48,2.13.56,2.54a27.27,27.27,0,0,1,8.07-6.68,21,21,0,0,1,10.41-2.72,23.46,23.46,0,0,1,10.47,2.29,13.62,13.62,0,0,1,6.78,7.73,29.84,29.84,0,0,1,8.75-7.18A22,22,0,0,1,437,77.21,20.37,20.37,0,0,1,450.52,81.78Z"/><path class="ebfa176f-21c0-476b-9901-c073ea5a70fd" d="M479.09,138.54q-5.1-5.26-5.09-14.78V81.09Q474,78,479.64,78h.67Q486,78,486,81.09v41.18c0,3.39.95,6,2.85,7.86s4.66,2.78,8.29,2.78a14.38,14.38,0,0,0,7.67-2.29,20.4,20.4,0,0,0,6.19-5.87V81.09Q511,78,516.69,78h1.67Q524,78,524,81.09v42.54a67.74,67.74,0,0,0,.74,12c.49,2.47.73,3.88.73,4.2,0,1.16-1,2-3.06,2.48a24.37,24.37,0,0,1-5.64.74,2.73,2.73,0,0,1-2.64-1.86,19.76,19.76,0,0,1-1.22-3.95c-.29-1.4-.47-2.35-.55-2.85a26.28,26.28,0,0,1-8.58,6.87,22.6,22.6,0,0,1-10.29,2.53Q484.17,143.79,479.09,138.54Z"/><path class="ebfa176f-21c0-476b-9901-c073ea5a70fd" d="M548,139.85q-5-4.15-5-13.79v-73Q543,50,548.74,50h1.4c3.9,0,5.86,1,5.86,3.09v72.35q0,4.45,1.66,6.24a5.91,5.91,0,0,0,4.58,1.8,12.68,12.68,0,0,0,3-.31,7.94,7.94,0,0,1,1.85-.31c.85,0,1.57.88,2.16,2.66a13.86,13.86,0,0,1,.9,4q0,4.44-10.2,4.45A18.11,18.11,0,0,1,548,139.85Z"/><path class="ebfa176f-21c0-476b-9901-c073ea5a70fd" d="M581,139.92V53.08Q581,50,586.74,50h.55c3.8,0,5.71,1,5.71,3.08V86a30.87,30.87,0,0,1,8.38-6.1,22.53,22.53,0,0,1,10.25-2.4A21.08,21.08,0,0,1,625.41,82Q631,86.59,631,97.42v42.5c0,2.05-1.91,3.08-5.71,3.08h-.65q-5.64,0-5.64-3.09V98.73q0-5.07-2.82-7.86t-8.33-2.78a13.65,13.65,0,0,0-6.62,1.67,19.22,19.22,0,0,0-5,3.71A16.6,16.6,0,0,0,594,96.25v43.67c0,2.05-2,3.08-5.86,3.08h-1.4Q581,143,581,139.92Z"/><path class="ebfa176f-21c0-476b-9901-c073ea5a70fd" d="M646.58,110.67q0-16.69,7.54-25.16T675.76,77q13,0,19.42,8.41t6.43,23.87c0,.83-.6,2-1.79,3.46s-2.17,2.23-2.91,2.23h-37q.75,9.41,5.07,13.67t12.62,4.26a27.43,27.43,0,0,0,8.22-1.11,39.79,39.79,0,0,0,6.06-2.41,13.89,13.89,0,0,1,2.91-1.3c.9,0,2,.95,3.15,2.84s1.79,3.3,1.79,4.21q0,2-3.27,3.89a31.41,31.41,0,0,1-8.47,3.16,45.55,45.55,0,0,1-10.52,1.23Q646.58,143.44,646.58,110.67Zm42-5.67q0-8.53-3.27-13t-9.83-4.51q-14,0-15.59,17.56Z"/><path class="ebfa176f-21c0-476b-9901-c073ea5a70fd" d="M717,139.91V97.74a66.47,66.47,0,0,0-.76-11.88c-.51-2.47-.77-3.87-.77-4.2,0-1.15,1.06-2,3.19-2.47a25.66,25.66,0,0,1,5.86-.74,2.82,2.82,0,0,1,2.74,1.73,17.65,17.65,0,0,1,1.28,3.71c.29,1.32.48,2.22.57,2.72q6.5-9.4,14.53-9.4a8.25,8.25,0,0,1,5.54,1.61A4.93,4.93,0,0,1,751,82.65a16.23,16.23,0,0,1-.89,4.95c-.6,1.81-1.28,2.72-2,2.72a9.86,9.86,0,0,1-2.61-.62,13.15,13.15,0,0,0-4.15-.62,10.41,10.41,0,0,0-6.94,2.54,23.43,23.43,0,0,0-4.4,4.63v43.66q0,3.09-5.74,3.09h-1.4Q717,143,717,139.91Z"/><path class="ebfa176f-21c0-476b-9901-c073ea5a70fd" d="M758.5,110.67Q758.5,94,766,85.51T787.68,77q13,0,19.42,8.41t6.43,23.87c0,.83-.6,2-1.8,3.46s-2.16,2.23-2.9,2.23h-37q.75,9.41,5.07,13.67t12.62,4.26a27.43,27.43,0,0,0,8.22-1.11,39.79,39.79,0,0,0,6.06-2.41,13.89,13.89,0,0,1,2.91-1.3c.9,0,1.95.95,3.15,2.84s1.79,3.3,1.79,4.21q0,2-3.27,3.89a31.36,31.36,0,0,1-8.48,3.16,45.4,45.4,0,0,1-10.51,1.23Q758.49,143.44,758.5,110.67Zm42-5.67q0-8.53-3.28-13t-9.83-4.51q-14,0-15.58,17.56Z"/><path class="ebfa176f-21c0-476b-9901-c073ea5a70fd" d="M833.19,142.65a25.56,25.56,0,0,1-7.36-3.09q-2.77-1.86-2.78-3.71a9,9,0,0,1,1.79-4.39q1.8-2.79,3.15-2.79a14.5,14.5,0,0,1,2.48,1.3,28.34,28.34,0,0,0,5.07,2.29,19.47,19.47,0,0,0,6.43,1q10.75,0,10.76-8.66a7.27,7.27,0,0,0-2.72-6q-2.73-2.16-9.15-4.26-8.67-2.6-12.49-6.87t-3.84-11.68a17.06,17.06,0,0,1,5.81-13.42q5.82-5.13,15.22-5.13A38.82,38.82,0,0,1,857.3,78.9q5.33,1.66,5.32,4.14a10.48,10.48,0,0,1-1.54,4.7c-1,1.9-2,2.84-2.91,2.84A29.49,29.49,0,0,1,854.83,89a17.28,17.28,0,0,0-7.67-1.43,12.58,12.58,0,0,0-7,1.8,5.67,5.67,0,0,0-2.72,5,7.69,7.69,0,0,0,2.66,6.12,26.3,26.3,0,0,0,8.23,4.26,48,48,0,0,1,10.2,4.58,14.44,14.44,0,0,1,5.32,5.81,20.28,20.28,0,0,1,1.67,8.78,18.72,18.72,0,0,1-2.91,10.27,19.58,19.58,0,0,1-8,7.11A25.76,25.76,0,0,1,843,143.88,37.52,37.52,0,0,1,833.19,142.65Z"/><path class="ebfa176f-21c0-476b-9901-c073ea5a70fd" d="M366.53,236a22.74,22.74,0,0,1-7.28-10,39.53,39.53,0,0,1-2.59-14.83,38.8,38.8,0,0,1,2.75-15.32,22,22,0,0,1,7.71-9.8,20.15,20.15,0,0,1,11.65-3.39,21.87,21.87,0,0,1,7.71,1.27,26.73,26.73,0,0,1,6.52,3.6V161.65q0-2.66,4.85-2.65H399q5,0,5,2.65v60.63a57.58,57.58,0,0,0,.65,10.28c.43,2.12.64,3.32.64,3.6,0,1-.9,1.7-2.69,2.12a22,22,0,0,1-5,.64,2.39,2.39,0,0,1-2.32-1.59,17.15,17.15,0,0,1-1.08-3.34c-.25-1.17-.41-2-.48-2.39q-7.12,8-16.4,8A17.43,17.43,0,0,1,366.53,236Zm20.32-7.89A23.51,23.51,0,0,0,393,223V195.41a18.3,18.3,0,0,0-11.45-3.92q-6.46,0-9.75,4.77t-3.28,13.89q0,9.54,3,14.68a9.6,9.6,0,0,0,8.74,5.14A13.23,13.23,0,0,0,386.85,228.11Z"/><path class="ebfa176f-21c0-476b-9901-c073ea5a70fd" d="M417.21,211.29q0-14.31,6.46-21.57t18.55-7.26q11.13,0,16.64,7.21t5.51,20.45a5.59,5.59,0,0,1-1.53,3c-1,1.27-1.86,1.91-2.49,1.91H428.66q.63,8.06,4.34,11.71t10.81,3.66a23.29,23.29,0,0,0,7.05-1,33.17,33.17,0,0,0,5.19-2.06,12.67,12.67,0,0,1,2.49-1.12c.78,0,1.68.82,2.71,2.44a8.13,8.13,0,0,1,1.53,3.61q0,1.69-2.8,3.33a26.89,26.89,0,0,1-7.26,2.71,39.2,39.2,0,0,1-9,1.06Q417.21,239.38,417.21,211.29Zm36-5.29q0-7.32-2.81-11.18c-1.88-2.58-4.68-3.87-8.43-3.87q-12,0-13.35,15.05Z"/><path class="ebfa176f-21c0-476b-9901-c073ea5a70fd" d="M503,257.46v-58a56.91,56.91,0,0,0-.64-10.17c-.43-2.12-.64-3.32-.64-3.61,0-1,.89-1.69,2.67-2.12a21.53,21.53,0,0,1,4.91-.63,2.47,2.47,0,0,1,2.35,1.53,14.86,14.86,0,0,1,1.12,3.18c.25,1.1.41,1.82.48,2.18a23.66,23.66,0,0,1,8.8-6.52,19,19,0,0,1,6.9-1.43,17.63,17.63,0,0,1,11.38,3.55,22.17,22.17,0,0,1,7.1,10,41.91,41.91,0,0,1,2.46,15q0,13.35-5.93,20.88t-16,7.52a21,21,0,0,1-7.58-1.27,26.46,26.46,0,0,1-6.41-3.6v23.53q0,2.54-4.91,2.54h-1.18Q503,260,503,257.46Zm32.14-32.26q3.24-4.77,3.24-13.89,0-9.54-3-14.68a9.49,9.49,0,0,0-8.69-5.14,13.43,13.43,0,0,0-6.68,1.86,22,22,0,0,0-6,5.14v27.56A17.75,17.75,0,0,0,525.45,230Q531.92,230,535.14,225.2Z"/><path class="ebfa176f-21c0-476b-9901-c073ea5a70fd" d="M564,236.35V200.21a56.74,56.74,0,0,0-.65-10.18c-.43-2.12-.64-3.32-.64-3.6,0-1,.89-1.7,2.69-2.12a22,22,0,0,1,5-.64,2.4,2.4,0,0,1,2.32,1.49,14.89,14.89,0,0,1,1.08,3.18c.25,1.13.41,1.91.49,2.33q5.49-8.05,12.29-8.06a6.91,6.91,0,0,1,4.69,1.38,4.27,4.27,0,0,1,1.57,3.29,14,14,0,0,1-.76,4.24c-.5,1.55-1.08,2.33-1.73,2.33a8.3,8.3,0,0,1-2.21-.53,11,11,0,0,0-3.5-.53,8.75,8.75,0,0,0-5.88,2.17,20.17,20.17,0,0,0-3.72,4v37.41q0,2.66-4.85,2.65H569Q564,239,564,236.35Z"/><path class="ebfa176f-21c0-476b-9901-c073ea5a70fd" d="M605.65,231.93q-6.36-7.26-6.36-21t6.47-21.2q6.47-7.41,18.44-7.42t18.28,7.37q6.32,7.37,6.31,21.25t-6.25,21q-6.25,7.26-18.34,7.26T605.65,231.93Zm28.67-6.52q3.34-4.77,3.34-14.63t-3.34-14.68Q631,191.28,624,191.28c-4.59,0-8,1.61-10.17,4.82s-3.29,8.11-3.29,14.68,1.08,11.45,3.23,14.63,5.57,4.77,10.23,4.77S632.1,228.59,634.32,225.41Z"/><path class="ebfa176f-21c0-476b-9901-c073ea5a70fd" d="M668.53,236a22.74,22.74,0,0,1-7.28-10,39.53,39.53,0,0,1-2.59-14.83,38.8,38.8,0,0,1,2.75-15.32,22,22,0,0,1,7.71-9.8,20.15,20.15,0,0,1,11.65-3.39,21.87,21.87,0,0,1,7.71,1.27,26.73,26.73,0,0,1,6.52,3.6V161.65q0-2.66,4.85-2.65H701q5,0,5,2.65v60.63a57.58,57.58,0,0,0,.65,10.28c.43,2.12.64,3.32.64,3.6,0,1-.9,1.7-2.69,2.12a22,22,0,0,1-5,.64,2.39,2.39,0,0,1-2.32-1.59,17.15,17.15,0,0,1-1.08-3.34c-.25-1.17-.41-2-.48-2.39q-7.12,8-16.4,8A17.43,17.43,0,0,1,668.53,236Zm20.32-7.89A23.51,23.51,0,0,0,695,223V195.41a18.3,18.3,0,0,0-11.45-3.92q-6.46,0-9.75,4.77t-3.28,13.89q0,9.54,3,14.68a9.6,9.6,0,0,0,8.74,5.14A13.23,13.23,0,0,0,688.85,228.11Z"/><path class="ebfa176f-21c0-476b-9901-c073ea5a70fd" d="M726.37,234.88q-4.36-4.5-4.37-12.66V185.65q0-2.66,4.85-2.65h1.37q4.78,0,4.78,2.65v35.29a9.1,9.1,0,0,0,2.39,6.73q2.4,2.39,7,2.39a11.93,11.93,0,0,0,6.44-2,17.47,17.47,0,0,0,5.2-5V185.65q0-2.66,4.78-2.65h1.37q4.85,0,4.85,2.65v36.46a59,59,0,0,0,.63,10.28c.42,2.12.64,3.32.64,3.6,0,1-.88,1.7-2.64,2.12a20.49,20.49,0,0,1-4.85.64,2.33,2.33,0,0,1-2.26-1.59,17.4,17.4,0,0,1-1.06-3.39c-.24-1.2-.4-2-.47-2.44a22.58,22.58,0,0,1-7.38,5.88,19.48,19.48,0,0,1-8.85,2.18Q730.75,239.39,726.37,234.88Z"/><path class="ebfa176f-21c0-476b-9901-c073ea5a70fd" d="M787.83,235.61Q784,232.07,784,223.8V192h-4.44a2.19,2.19,0,0,1-1.95-.9,5.31,5.31,0,0,1-.61-2.92v-1.5a5.08,5.08,0,0,1,.6-2.81,2.12,2.12,0,0,1,1.89-.87h4.34l1.41-10.44q.33-2.56,4.12-2.56h1.74q3.9,0,3.9,2.56V183h7.63a2,2,0,0,1,1.8.9,5.64,5.64,0,0,1,.57,2.91v1.38a5.64,5.64,0,0,1-.57,2.91,2,2,0,0,1-1.8.9H794v31.27c0,2.54.4,4.33,1.21,5.35a4.26,4.26,0,0,0,3.55,1.54,8.28,8.28,0,0,0,2.28-.27,5.76,5.76,0,0,1,1.41-.26c.64,0,1.19.76,1.65,2.27a13.46,13.46,0,0,1,.68,3.45q0,3.81-7.77,3.81A13,13,0,0,1,787.83,235.61Z"/><path class="ebfa176f-21c0-476b-9901-c073ea5a70fd" d="M821.12,231.93q-6.35-7.26-6.35-21t6.46-21.2q6.46-7.41,18.44-7.42T858,189.64q6.3,7.37,6.3,21.25t-6.25,21q-6.25,7.26-18.34,7.26T821.12,231.93Zm28.67-6.52q3.35-4.77,3.34-14.63t-3.34-14.68q-3.33-4.82-10.33-4.82t-10.17,4.82q-3.3,4.83-3.29,14.68t3.23,14.63q3.24,4.77,10.23,4.77T849.79,225.41Z"/><path class="ebfa176f-21c0-476b-9901-c073ea5a70fd" d="M151.41.36a151,151,0,1,0,151,151A151,151,0,0,0,151.41.36Zm-48,232.09a5.91,5.91,0,0,1-5.9,5.91H70.31a5.91,5.91,0,0,1-5.9-5.91V104.39l39,40.82Zm16.11-81.06-50-52.9c-.3-.32-.65-.66-1.15-1.16C65,94,63.38,91.86,64.22,89.85c8.18-11.73,27.3-18,30.82-17.62h.33c2.67,0,5.24,2.73,6.33,3.9l43,45.59L123.23,145A17,17,0,0,0,119.52,151.39Zm68.89-7.54L158,176.8a9.07,9.07,0,0,1-12.75.52l-15.12-13.94a9,9,0,0,1-.52-12.75l58.76-63.75Zm47,89.51a7,7,0,0,1-7,7h-25a7,7,0,0,1-7-7v-152a7,7,0,0,1,7-7h25a7,7,0,0,1,7,7Z"/></svg>