<svg id="060ad7af-87dd-405d-95c6-29af4df835f5" data-name="Camada 1" xmlns="http://www.w3.org/2000/svg" viewBox="0 0 302 302"><defs><style>.c1156ad0-ac90-48fb-b01b-e9559d0893cd{fill:#011627;}</style></defs><title>Prancheta 46</title><path class="c1156ad0-ac90-48fb-b01b-e9559d0893cd" d="M151,0A151,151,0,1,0,302,151,151,151,0,0,0,151,0ZM103,232.1a5.9,5.9,0,0,1-5.9,5.9H69.9a5.9,5.9,0,0,1-5.9-5.9V104l39,40.81ZM119.11,151l-50-52.89c-.3-.32-.65-.67-1.15-1.17-3.3-3.28-4.94-5.47-4.11-7.48,8.18-11.72,27.3-18,30.83-17.62H95c2.67,0,5.24,2.73,6.34,3.9l43,45.59-21.45,23.28A17,17,0,0,0,119.11,151ZM188,143.5l-30.36,32.94a9.06,9.06,0,0,1-12.76.52L129.77,163a9,9,0,0,1-.52-12.75L188,86.53ZM235,233a7,7,0,0,1-7,7H203a7,7,0,0,1-7-7V81a7,7,0,0,1,7-7h25a7,7,0,0,1,7,7Z"/></svg>