<svg id="71f35cc3-3d20-4696-8f7c-19c6414e86d0" data-name="Camada 1" xmlns="http://www.w3.org/2000/svg" xmlns:xlink="http://www.w3.org/1999/xlink" viewBox="0 0 302 302.09"><defs><style>.\34 e40762c-3354-47e8-b213-0fa1c95663db{fill:url(#199e3a97-abb1-4384-a591-46e414d37b9d);}.\34 269ab44-f4d2-400a-aee4-34427083661e{fill:#fff;}</style><linearGradient id="199e3a97-abb1-4384-a591-46e414d37b9d" x1="66.17" y1="67.8" x2="274.17" y2="271.8" gradientUnits="userSpaceOnUse"><stop offset="0" stop-color="#990c6e"/><stop offset="1" stop-color="#4c56c9"/></linearGradient></defs><title>symbol-gradient</title><circle class="4e40762c-3354-47e8-b213-0fa1c95663db" cx="151" cy="151" r="151"/><path class="4269ab44-f4d2-400a-aee4-34427083661e" d="M71.9,233H99.1a5.9,5.9,0,0,0,5.9-5.9V139.85L66,99V227.1A5.9,5.9,0,0,0,71.9,233Z"/><path class="4269ab44-f4d2-400a-aee4-34427083661e" d="M146.27,116.37l-43-45.59c-1.1-1.17-3.67-3.9-6.34-3.9h-.32c-3.53-.36-22.65,5.9-30.83,17.62-.83,2,.81,4.2,4.11,7.48.5.5.85.85,1.15,1.17l50,52.89a17,17,0,0,1,3.71-6.38Z"/><path class="4269ab44-f4d2-400a-aee4-34427083661e" d="M131.25,145.28a9,9,0,0,0,.52,12.75L146.88,172a9.06,9.06,0,0,0,12.76-.52L190,138.5v-57Z"/><rect class="4269ab44-f4d2-400a-aee4-34427083661e" x="198" y="69" width="39" height="166" rx="7" ry="7"/></svg>