<svg id="b60d4843-83e6-4ef8-b8f7-9b75a63f47dd" data-name="Camada 1" xmlns="http://www.w3.org/2000/svg" viewBox="0 0 302 302.09"><defs><style>.bbde9493-3d60-4003-b1a3-f61de337ff4d{fill:#990c6e;}.\39 3c3c262-23c9-44ba-90a2-346a21d532ce{opacity:0.2;}.\33 265145c-f47a-45ad-a445-325dfb069aca{fill:#fff;}</style></defs><title>symbol</title><circle class="bbde9493-3d60-4003-b1a3-f61de337ff4d" cx="151" cy="151" r="151"/><path class="93c3c262-23c9-44ba-90a2-346a21d532ce" d="M220,285.3l-1-.68v-.08l-2-.68v-.08l1-.68V283l-1-.69v-.07l-1-.69v-.07l1-.69v-.07l-2-.69V280l-1-.69v-.07l1-.69v-.08l-2-.68v-.08l-1-.68v-.08l1-.68v-.08l-3-.68v-.08l1-.68v-.08l-1-.68v-.08l-2-.69v-.07l1-.69v-.07l-1-.69v-.07l-2-.69v-.07l1-.69v-.07l-1-.69v-.08l-1-.68v-.08l1-.68v-.08l-2-.68V267l-1-.68v-.08l1-.68v-.08l-2-.68v-.08l-1-.68V264l1-.69v-.07l-2-.69v-.07l-1-.69v-.07l1-.69V261l-3-.69v-.07l1-.69v-.08l-1-.68v-.08l-2-.68v-.08l1-.68v-.08l-1-.68v-.08l-2-.68v-.08l1-.68v-.08l-1-.69v-.07l-1-.69v-.07l1-.69v-.07l-2-.69v-.07l-1-.69v-.07l1-.69v-.08l-2-.68v-.08l-1-.68v-.08l1-.68V248l-3-.68v-.08l1-.68v-.08l-1-.68v-.08l-2-.68V245l1-.69v-.07l-1-.69v-.07l-2-.69v-.07l1-.69v-.07l-1-.69v-.07l-1-.69v-.08l1-.68v-.08l-2-.68v-.08l-1-.68v-.08l1-.68v-.08l-2-.68v-.08l-1-.68v-.08l1-.69v-.07l-3-.69v-.07l1-.69v-.07l-1-.69v-.07l-2-.69v-.07l1-.69v-.08l-1-.68v-.08l-2-.68v-.08l1-.68V229l-1-.68v-.08l-1-.68v-.08l1-.68v-.08l-2-.68V226l-1-.69v-.07l1-.69v-.07l-2-.69v-.07l-1-.69v-.07l1-.69v-.07l-3-.69v-.08l1-.68v-.08l-1-.68v-.08l-2-.68v-.08l1-.68v-.08l-1-.68v-.08l-2-.68v-.08l1-.68v-.08l-1-.69v-.07l-1-.69v-.07l1-.69v-.07l-2-.69V213l-1-.69v-.08l1-.68v-.08l-2-.68v-.08l-1-.68V210l1-.68v-.08l-3-.68v-.08l1-.68v-.08l-1-.68v-.08l-2-.69v-.07l1-.69v-.07l-1-.69v-.07l-2-.69v-.07l1-.69v-.07l-1-.69v-.08l-2-.68v-.08l1-.68v-.08l-1-.68v-.08l-1-.68v-.08l1-.68v-.08l-2-.68v-.08l-1-.68v-.08l1-.69v-.07l-2-.69v-.07l-1-.69v-.07l1-.69V194l-3-.69v-.07l1-.69v-.08l-1-.68v-.08l-2-.68V191l1-.68v-.08l-1-.68v-.08l-2-.68v-.08l1-.68v-.08l-1-.69v-.07l-1-.69v-.07l1-.69v-.07l-2-.69v-.07l-1-.69v-.07l1-.69v-.08l-2-.68v-.08l-1-.68v-.08l1-.68v-.08l-3-.68v-.08l1-.68v-.08l-1-.68v-.08l-2-.68V178l1-.69v-.07l-1-.69v-.07l-2-.69v-.07l1-.69V175l-1-.69v-.07l-1-.69v-.08l1-.68v-.08l-2-.68v-.08l-1-.68v-.08l1-.68v-.08l-2-.68v-.08l-1-.68v-.08l1-.69v-.07l-3-.69v-.07l1-.69v-.07l-1-.69v-.07l-2-.69v-.07l1-.69v-.08l-1-.68v-.08l-2-.68v-.08l1-.68v-.08l-1-.68v-.08l-1-.68v-.08l1-.68v-.08l-2-.68V159l-1-.69v-.07l1-.69v-.07l-2-.69v-.07l-1-.69V156l1-.69v-.07l-3-.69v-.08l1-.68v-.08l-1-.68v-.08l-2-.68v-.08l1-.68v-.08l-1-.68v-.08l-2-.68v-.08l1-.69v-.07l-1-.69v-.07l-2-.69v-.07l1-.69v-.07l-1-.69v-.07l-1-.69v-.08l1-.68v-.08l-2-.68v-.63L60,102V230.23a5.92,5.92,0,0,0,1.77,4.21,5.81,5.81,0,0,0,.65.76,5.22,5.22,0,0,0,.65.76,5.85,5.85,0,0,0,.64.76,155.63,155.63,0,0,1,1.3,1.53,6.69,6.69,0,0,0,.65.76,6.69,6.69,0,0,0,.65.76,5.92,5.92,0,0,0,.65.76,5.22,5.22,0,0,0,.65.76,5.89,5.89,0,0,0,.65.77,5.81,5.81,0,0,0,.65.76,6.6,6.6,0,0,0,.64.76,5.92,5.92,0,0,0,.65.76,5.92,5.92,0,0,0,.65.76,6.79,6.79,0,0,0,.65.77,6.69,6.69,0,0,0,.65.76,6.69,6.69,0,0,0,.65.76,5.22,5.22,0,0,0,.65.76,5.22,5.22,0,0,0,.65.76,5.85,5.85,0,0,0,.64.76,7,7,0,0,0,.65.77,6.69,6.69,0,0,0,.65.76,30461954533043.75,30461954533043.75,0,0,0,1.3,1.52,5.92,5.92,0,0,0,.65.76,5.3,5.3,0,0,0,.65.77,5.81,5.81,0,0,0,.65.76,5.22,5.22,0,0,0,.65.76,5.85,5.85,0,0,0,.64.76,6.84,6.84,0,0,0,.65.76,6,6,0,0,0,.65.77,6.69,6.69,0,0,0,.65.76,5.92,5.92,0,0,0,.65.76,5.92,5.92,0,0,0,.65.76,5.22,5.22,0,0,0,.65.76,5.3,5.3,0,0,0,.65.77,6.6,6.6,0,0,0,.64.76,6.84,6.84,0,0,0,.65.76,30461954533077.55,30461954533077.55,0,0,1,1.3,1.52,6,6,0,0,0,.65.77,6.69,6.69,0,0,0,.65.76,5.22,5.22,0,0,0,.65.76,30461954533077.22,30461954533077.22,0,0,1,1.3,1.52,5.94,5.94,0,0,0,.64.77,7.89,7.89,0,0,0,.65.76,5.92,5.92,0,0,0,.65.76,5.92,5.92,0,0,0,.65.76,5.92,5.92,0,0,0,.65.76,6.79,6.79,0,0,0,.65.77,5.81,5.81,0,0,0,.65.76,5.22,5.22,0,0,0,.65.76,5.85,5.85,0,0,0,.64.76,155.63,155.63,0,0,1,1.3,1.53,6.69,6.69,0,0,0,.65.76,5.92,5.92,0,0,0,.65.76,5.92,5.92,0,0,0,.65.76,5.22,5.22,0,0,0,.65.76,5.89,5.89,0,0,0,.65.77,5.81,5.81,0,0,0,.65.76,6.6,6.6,0,0,0,.64.76,6.84,6.84,0,0,0,.65.76,30461954533082.57,30461954533082.57,0,0,1,1.3,1.52,6,6,0,0,0,.65.77,6.69,6.69,0,0,0,.65.76,5.22,5.22,0,0,0,.65.76,5.22,5.22,0,0,0,.65.76,5.22,5.22,0,0,0,.65.76,5.94,5.94,0,0,0,.64.77,6.69,6.69,0,0,0,.65.76,5.92,5.92,0,0,0,.65.76,5.92,5.92,0,0,0,.65.76,5.92,5.92,0,0,0,.65.76,5.3,5.3,0,0,0,.65.77,5.81,5.81,0,0,0,.65.76,5.22,5.22,0,0,0,.65.76,5.85,5.85,0,0,0,.64.76,6.84,6.84,0,0,0,.65.76,6,6,0,0,0,.65.77,6.69,6.69,0,0,0,.65.76l.18.21a151.78,151.78,0,0,0,104.34-12.33l-.14-.15Z"/><path class="93c3c262-23c9-44ba-90a2-346a21d532ce" d="M301.9,156.13a1.34,1.34,0,0,0-.39-.32,1.52,1.52,0,0,0-.64-.77,1.61,1.61,0,0,0-.65-.76,1.56,1.56,0,0,0-.65-.76,15230977266551.31,15230977266551.31,0,0,0-1.3-1.52,1.49,1.49,0,0,0-.64-.76,1.56,1.56,0,0,0-.65-.76,30461954533177.82,30461954533177.82,0,0,1-1.3-1.52,1.49,1.49,0,0,0-.64-.76,1.56,1.56,0,0,0-.65-.76,1.52,1.52,0,0,0-.65-.76,1.43,1.43,0,0,0-.65-.76,1.49,1.49,0,0,0-.65-.77,1.54,1.54,0,0,0-.64-.76,1.56,1.56,0,0,0-.65-.76,1.51,1.51,0,0,0-.65-.76,1.47,1.47,0,0,0-.65-.76,1.47,1.47,0,0,0-.65-.76,1.49,1.49,0,0,0-.64-.76,1.56,1.56,0,0,0-.65-.76,1.47,1.47,0,0,0-.65-.76,130.32,130.32,0,0,1-1.29-1.52,1.52,1.52,0,0,0-.65-.76,1.59,1.59,0,0,0-.65-.77,1.51,1.51,0,0,0-.65-.76,130.32,130.32,0,0,1-1.29-1.52,1.56,1.56,0,0,0-.65-.76,30461954532938,30461954532938,0,0,0-1.3-1.52,1.47,1.47,0,0,0-.65-.76,1.49,1.49,0,0,0-.64-.76,1.56,1.56,0,0,0-.65-.76,30461954533214.35,30461954533214.35,0,0,0-1.3-1.52,1.46,1.46,0,0,0-.64-.76,1.59,1.59,0,0,0-.65-.77,1.61,1.61,0,0,0-.65-.76,15230977266403.43,15230977266403.43,0,0,1-1.3-1.52,1.49,1.49,0,0,0-.64-.76,1.56,1.56,0,0,0-.65-.76,15230977266600,15230977266600,0,0,0-1.3-1.52,1.47,1.47,0,0,0-.65-.76,1.49,1.49,0,0,0-.64-.76,1.52,1.52,0,0,0-.65-.76,1.43,1.43,0,0,0-.65-.76,1.49,1.49,0,0,0-.65-.77,1.54,1.54,0,0,0-.64-.76,1.61,1.61,0,0,0-.65-.76,1.51,1.51,0,0,0-.65-.76,30461954533304.55,30461954533304.55,0,0,0-1.3-1.52,1.49,1.49,0,0,0-.64-.76,1.56,1.56,0,0,0-.65-.76,15230977266646.51,15230977266646.51,0,0,0-1.3-1.52,1.49,1.49,0,0,0-.64-.76,15230977266646,15230977266646,0,0,0-1.3-1.52,1.49,1.49,0,0,0-.65-.77,130.32,130.32,0,0,1-1.29-1.52,1.56,1.56,0,0,0-.65-.76,30461954533065.9,30461954533065.9,0,0,1-1.3-1.52,1.47,1.47,0,0,0-.65-.76,1.49,1.49,0,0,0-.64-.76,1.56,1.56,0,0,0-.65-.76,1.47,1.47,0,0,0-.65-.76,1.43,1.43,0,0,0-.65-.76,1.46,1.46,0,0,0-.64-.76,1.59,1.59,0,0,0-.65-.77,1.56,1.56,0,0,0-.65-.76,1.51,1.51,0,0,0-.65-.76,1.47,1.47,0,0,0-.65-.76,1.49,1.49,0,0,0-.64-.76,1.56,1.56,0,0,0-.65-.76,30461954532942.21,30461954532942.21,0,0,1-1.3-1.52,1.47,1.47,0,0,0-.65-.76,1.49,1.49,0,0,0-.64-.76,1.56,1.56,0,0,0-.65-.76,1.43,1.43,0,0,0-.65-.76,1.43,1.43,0,0,0-.65-.76,1.52,1.52,0,0,0-.64-.77,1.61,1.61,0,0,0-.65-.76,1.51,1.51,0,0,0-.65-.76,1.47,1.47,0,0,0-.65-.76,1.47,1.47,0,0,0-.65-.76,1.49,1.49,0,0,0-.64-.76,1.56,1.56,0,0,0-.65-.76,1.47,1.47,0,0,0-.65-.76,1.47,1.47,0,0,0-.65-.76,1.49,1.49,0,0,0-.64-.76,1.52,1.52,0,0,0-.65-.76,1.52,1.52,0,0,0-.65-.76,1.43,1.43,0,0,0-.65-.76,1.49,1.49,0,0,0-.65-.77,1.54,1.54,0,0,0-.64-.76,1.56,1.56,0,0,0-.65-.76,30461954533159.26,30461954533159.26,0,0,0-1.3-1.52,1.47,1.47,0,0,0-.65-.76,1.49,1.49,0,0,0-.64-.76,1.56,1.56,0,0,0-.65-.76c-.22-.57-1.4-.88-1.4-.88H199c-.4,0-.65-.19-1,0v.28c-5,0-6,4.72-6,6.72V94.51l1,.57V93.66l-3,.7V92.89l1,.71V92.13l-1,.71V91.37l-2,.71V90.61l1,.7V89.85l-1,.7V89.09l-1,.7V88.33l1,.7V87.57l-2,.7V86.81l-1,.7V86.05l1,.7v-1.5l-2,.7V84.49l-37.91,41.23-.25-.27,0,0-.69-.73,0,0-.68-.73,0,0-.68-.73,0,0-.68-.73,0,0-.68-.72,0,0-.69-.72,0,0-.68-.72,0,0-.68-.72,0,0-43-45.59c-1.09-1.17-3.66-3.9-6.33-3.9h-.33c-3.49-.36-22.3,5.78-30.6,17.3a2.25,2.25,0,0,0-.35.69c-.38,1.45.48,3,2.27,5,.2.25.42.5.65.76s.42.5.65.77l.65.76c.19.24.41.5.64.76l.65.76.65.76.65.76c.2.24.41.5.64.76s.42.5.65.76.42.5.65.76.42.5.65.76.42.5.65.76.41.5.64.76.42.5.65.76.42.5.65.76.42.51.65.77.41.5.65.76.41.5.64.76l.65.76.65.76.65.76c.2.25.41.5.64.76s.42.5.65.76.42.5.65.76.42.5.65.76.42.5.65.76.41.5.64.76.42.51.65.77l.65.76.65.76c.2.24.41.5.65.76s.41.5.64.76l.65.76c.2.25.42.5.65.76s.42.5.65.76.41.5.64.76.42.5.65.76.42.5.65.76.42.5.65.76.41.5.65.76.41.51.64.77l.65.76.65.76.65.76c.2.24.41.5.64.76s.42.5.65.76.42.5.65.76.42.5.65.76.42.5.65.76.41.5.64.76.42.5.65.76.42.5.65.76.42.51.65.77.41.5.65.76.41.5.64.76l.65.76.65.76.65.76c.2.25.41.5.64.76s.42.5.65.76.42.5.65.76.42.5.65.76.42.5.65.76.41.5.64.76.42.5.65.77l.65.76.65.76c.2.24.41.5.65.76s.41.5.64.76l.65.76.65.76c.2.25.42.5.65.76s.41.5.64.76.42.5.65.76.42.5.65.76.42.5.65.76.42.5.65.76.41.5.64.77l.65.76.65.76.65.76c.2.24.41.5.65.76s.41.5.64.76.42.5.65.76.42.5.65.76.42.5.65.76.41.5.64.76.42.5.65.76.42.5.65.76.42.5.65.76.41.51.65.77.41.5.64.76l.65.76.65.76.65.76c.2.25.41.5.64.76s.42.5.65.76.42.5.65.76.42.5.65.76.42.5.65.76.41.5.64.76.42.5.65.76.42.5.65.77l.65.76c.2.24.41.5.65.76s.41.5.64.76l.65.76.65.76c.2.25.42.5.65.76s.41.5.64.76.42.5.65.76.42.5.65.76.42.5.65.76.42.5.65.76.41.5.64.76.42.51.65.77l.65.76.65.76c.2.24.41.5.65.76s.41.5.64.76l.65.76c.2.25.42.5.65.76s.42.5.65.76.41.5.64.76.42.5.65.76.42.5.65.76.42.5.65.76.42.51.65.77.41.5.64.76l.65.76.65.76.65.76c.2.24.41.5.64.76s.42.5.65.76.42.5.65.76.42.5.65.76.42.5.65.76.41.5.64.76.42.5.65.76.42.5.65.76.42.51.65.77.41.5.65.76.41.5.64.76l.65.76.65.76.65.76c.2.25.41.5.64.76s.42.5.65.76.42.5.65.76.42.5.65.76.42.5.65.76.41.5.64.76.42.5.65.77l.65.76.65.76c.2.24.41.5.65.76s.41.5.64.76l.65.76c.2.25.42.5.65.76s.42.5.65.76.41.5.64.76.42.5.65.76.42.5.65.76.42.5.65.76.42.5.65.76.41.51.64.77l.65.76.65.76.65.76c.2.24.41.5.65.76s.41.5.64.76.42.5.65.76.42.5.65.76.42.5.65.76.41.5.64.76.42.5.65.76.42.5.65.76.42.51.65.77l.65.76c.19.24.41.5.64.76l.65.76.65.76.65.76c.2.24.41.5.64.76s.42.5.65.76.42.5.65.76.42.5.65.76.42.5.65.76.41.5.64.76.42.5.65.76.42.51.65.77l.65.76c.2.24.41.5.65.76s.41.5.64.76l.65.76.65.76c.2.25.42.5.65.76s.41.5.64.76.42.5.65.76.42.5.65.76.42.5.65.76.42.5.65.76.41.5.64.76.42.51.65.77l.65.76.65.76c.2.24.41.5.65.76s.41.5.64.76l.65.76c.2.25.42.5.65.76s.42.5.65.76.41.5.64.76.42.5.65.76.42.5.65.76.42.5.65.76.41.51.65.77.41.5.64.76l.65.76.65.76.65.76c.2.24.41.5.64.76s.42.5.65.76.42.5.65.76.42.5.65.76.42.5.65.76.41.5.64.76.42.5.65.76.42.5.65.77l.65.76.65.76c.19.24.41.5.64.76l.65.76.65.76.65.76c.2.25.41.5.64.76s.42.5.65.76.42.5.65.76.42.5.65.76.42.5.65.76.41.5.64.76.42.51.65.77l.65.76.65.76c.2.24.41.5.65.76s.41.5.64.76l.65.76c.2.25.42.5.65.76s.42.5.65.76.41.5.64.76l.63.73A151,151,0,0,0,301.9,156.13Z"/><path class="3265145c-f47a-45ad-a445-325dfb069aca" d="M65.9,236H93.1a5.9,5.9,0,0,0,5.9-5.9V142.85L60,102V230.1A5.9,5.9,0,0,0,65.9,236Z"/><path class="3265145c-f47a-45ad-a445-325dfb069aca" d="M140.27,119.37l-43-45.59c-1.1-1.17-3.67-3.9-6.34-3.9h-.32c-3.53-.36-22.65,5.9-30.83,17.62-.83,2,.81,4.2,4.11,7.48.5.5.85.85,1.15,1.17l50,52.89a17,17,0,0,1,3.71-6.38Z"/><path class="3265145c-f47a-45ad-a445-325dfb069aca" d="M125.25,148.28a9,9,0,0,0,.52,12.75L140.88,175a9.06,9.06,0,0,0,12.76-.52L184,141.5v-57Z"/><rect class="3265145c-f47a-45ad-a445-325dfb069aca" x="192" y="72" width="39" height="166" rx="7" ry="7"/></svg>